<?xml version="1.0" encoding="utf-8" standalone="no"?>
<!DOCTYPE svg PUBLIC "-//W3C//DTD SVG 1.1//EN"
  "http://www.w3.org/Graphics/SVG/1.1/DTD/svg11.dtd">
<svg xmlns:xlink="http://www.w3.org/1999/xlink" width="432pt" height="432pt" viewBox="0 0 432 432" xmlns="http://www.w3.org/2000/svg" version="1.1">
 <metadata>
  <rdf:RDF xmlns:dc="http://purl.org/dc/elements/1.1/" xmlns:cc="http://creativecommons.org/ns#" xmlns:rdf="http://www.w3.org/1999/02/22-rdf-syntax-ns#">
   <cc:Work>
    <dc:type rdf:resource="http://purl.org/dc/dcmitype/StillImage"/>
    <dc:date>2025-12-30T17:14:53.268539</dc:date>
    <dc:format>image/svg+xml</dc:format>
    <dc:creator>
     <cc:Agent>
      <dc:title>Matplotlib v3.10.8, https://matplotlib.org/</dc:title>
     </cc:Agent>
    </dc:creator>
   </cc:Work>
  </rdf:RDF>
 </metadata>
 <defs>
  <style type="text/css">*{stroke-linejoin: round; stroke-linecap: butt}</style>
 </defs>
 <g id="figure_1">
  <g id="patch_1">
   <path d="M 0 432 
L 432 432 
L 432 0 
L 0 0 
z
" style="fill: #ffffff"/>
  </g>
  <g id="axes_1">
   <g id="patch_2">
    <path d="M 18.365897 88.321739 
L 95.887636 88.321739 
L 95.887636 10.8 
L 18.365897 10.8 
z
" clip-path="url(#p1b850f3b98)" style="fill: #c6057b"/>
   </g>
   <g id="text_1">
    <!-- Berry -->
    <g transform="translate(44.812391 102.090163) scale(0.08 -0.08)">
     <defs>
      <path id="DejaVuSans-Bold-42" d="M 2456 2859 
Q 2741 2859 2887 2984 
Q 3034 3109 3034 3353 
Q 3034 3594 2887 3720 
Q 2741 3847 2456 3847 
L 1791 3847 
L 1791 2859 
L 2456 2859 
z
M 2497 819 
Q 2859 819 3042 972 
Q 3225 1125 3225 1434 
Q 3225 1738 3044 1889 
Q 2863 2041 2497 2041 
L 1791 2041 
L 1791 819 
L 2497 819 
z
M 3616 2497 
Q 4003 2384 4215 2081 
Q 4428 1778 4428 1338 
Q 4428 663 3972 331 
Q 3516 0 2584 0 
L 588 0 
L 588 4666 
L 2394 4666 
Q 3366 4666 3802 4372 
Q 4238 4078 4238 3431 
Q 4238 3091 4078 2852 
Q 3919 2613 3616 2497 
z
" transform="scale(0.015625)"/>
      <path id="DejaVuSans-Bold-65" d="M 4031 1759 
L 4031 1441 
L 1416 1441 
Q 1456 1047 1700 850 
Q 1944 653 2381 653 
Q 2734 653 3104 758 
Q 3475 863 3866 1075 
L 3866 213 
Q 3469 63 3072 -14 
Q 2675 -91 2278 -91 
Q 1328 -91 801 392 
Q 275 875 275 1747 
Q 275 2603 792 3093 
Q 1309 3584 2216 3584 
Q 3041 3584 3536 3087 
Q 4031 2591 4031 1759 
z
M 2881 2131 
Q 2881 2450 2695 2645 
Q 2509 2841 2209 2841 
Q 1884 2841 1681 2658 
Q 1478 2475 1428 2131 
L 2881 2131 
z
" transform="scale(0.015625)"/>
      <path id="DejaVuSans-Bold-72" d="M 3138 2547 
Q 2991 2616 2845 2648 
Q 2700 2681 2553 2681 
Q 2122 2681 1889 2404 
Q 1656 2128 1656 1613 
L 1656 0 
L 538 0 
L 538 3500 
L 1656 3500 
L 1656 2925 
Q 1872 3269 2151 3426 
Q 2431 3584 2822 3584 
Q 2878 3584 2943 3579 
Q 3009 3575 3134 3559 
L 3138 2547 
z
" transform="scale(0.015625)"/>
      <path id="DejaVuSans-Bold-79" d="M 78 3500 
L 1197 3500 
L 2138 1125 
L 2938 3500 
L 4056 3500 
L 2584 -331 
Q 2363 -916 2067 -1148 
Q 1772 -1381 1288 -1381 
L 641 -1381 
L 641 -647 
L 991 -647 
Q 1275 -647 1404 -556 
Q 1534 -466 1606 -231 
L 1638 -134 
L 78 3500 
z
" transform="scale(0.015625)"/>
     </defs>
     <use xlink:href="#DejaVuSans-Bold-42"/>
     <use xlink:href="#DejaVuSans-Bold-65" transform="translate(76.220703 0)"/>
     <use xlink:href="#DejaVuSans-Bold-72" transform="translate(144.042969 0)"/>
     <use xlink:href="#DejaVuSans-Bold-72" transform="translate(193.359375 0)"/>
     <use xlink:href="#DejaVuSans-Bold-79" transform="translate(242.675781 0)"/>
    </g>
   </g>
  </g>
  <g id="axes_2">
   <g id="patch_3">
    <path d="M 123.614946 88.321739 
L 201.136685 88.321739 
L 201.136685 10.8 
L 123.614946 10.8 
z
" clip-path="url(#p2b4bc19a7e)" style="fill: #de5795"/>
   </g>
   <g id="text_2">
    <!-- Charity Pink -->
    <g transform="translate(134.827065 102.152663) scale(0.08 -0.08)">
     <defs>
      <path id="DejaVuSans-Bold-43" d="M 4288 256 
Q 3956 84 3597 -3 
Q 3238 -91 2847 -91 
Q 1681 -91 1000 561 
Q 319 1213 319 2328 
Q 319 3447 1000 4098 
Q 1681 4750 2847 4750 
Q 3238 4750 3597 4662 
Q 3956 4575 4288 4403 
L 4288 3438 
Q 3953 3666 3628 3772 
Q 3303 3878 2944 3878 
Q 2300 3878 1931 3465 
Q 1563 3053 1563 2328 
Q 1563 1606 1931 1193 
Q 2300 781 2944 781 
Q 3303 781 3628 887 
Q 3953 994 4288 1222 
L 4288 256 
z
" transform="scale(0.015625)"/>
      <path id="DejaVuSans-Bold-68" d="M 4056 2131 
L 4056 0 
L 2931 0 
L 2931 347 
L 2931 1625 
Q 2931 2084 2911 2256 
Q 2891 2428 2841 2509 
Q 2775 2619 2662 2680 
Q 2550 2741 2406 2741 
Q 2056 2741 1856 2470 
Q 1656 2200 1656 1722 
L 1656 0 
L 538 0 
L 538 4863 
L 1656 4863 
L 1656 2988 
Q 1909 3294 2193 3439 
Q 2478 3584 2822 3584 
Q 3428 3584 3742 3212 
Q 4056 2841 4056 2131 
z
" transform="scale(0.015625)"/>
      <path id="DejaVuSans-Bold-61" d="M 2106 1575 
Q 1756 1575 1579 1456 
Q 1403 1338 1403 1106 
Q 1403 894 1545 773 
Q 1688 653 1941 653 
Q 2256 653 2472 879 
Q 2688 1106 2688 1447 
L 2688 1575 
L 2106 1575 
z
M 3816 1997 
L 3816 0 
L 2688 0 
L 2688 519 
Q 2463 200 2181 54 
Q 1900 -91 1497 -91 
Q 953 -91 614 226 
Q 275 544 275 1050 
Q 275 1666 698 1953 
Q 1122 2241 2028 2241 
L 2688 2241 
L 2688 2328 
Q 2688 2594 2478 2717 
Q 2269 2841 1825 2841 
Q 1466 2841 1156 2769 
Q 847 2697 581 2553 
L 581 3406 
Q 941 3494 1303 3539 
Q 1666 3584 2028 3584 
Q 2975 3584 3395 3211 
Q 3816 2838 3816 1997 
z
" transform="scale(0.015625)"/>
      <path id="DejaVuSans-Bold-69" d="M 538 3500 
L 1656 3500 
L 1656 0 
L 538 0 
L 538 3500 
z
M 538 4863 
L 1656 4863 
L 1656 3950 
L 538 3950 
L 538 4863 
z
" transform="scale(0.015625)"/>
      <path id="DejaVuSans-Bold-74" d="M 1759 4494 
L 1759 3500 
L 2913 3500 
L 2913 2700 
L 1759 2700 
L 1759 1216 
Q 1759 972 1856 886 
Q 1953 800 2241 800 
L 2816 800 
L 2816 0 
L 1856 0 
Q 1194 0 917 276 
Q 641 553 641 1216 
L 641 2700 
L 84 2700 
L 84 3500 
L 641 3500 
L 641 4494 
L 1759 4494 
z
" transform="scale(0.015625)"/>
      <path id="DejaVuSans-Bold-20" transform="scale(0.015625)"/>
      <path id="DejaVuSans-Bold-50" d="M 588 4666 
L 2584 4666 
Q 3475 4666 3951 4270 
Q 4428 3875 4428 3144 
Q 4428 2409 3951 2014 
Q 3475 1619 2584 1619 
L 1791 1619 
L 1791 0 
L 588 0 
L 588 4666 
z
M 1791 3794 
L 1791 2491 
L 2456 2491 
Q 2806 2491 2997 2661 
Q 3188 2831 3188 3144 
Q 3188 3456 2997 3625 
Q 2806 3794 2456 3794 
L 1791 3794 
z
" transform="scale(0.015625)"/>
      <path id="DejaVuSans-Bold-6e" d="M 4056 2131 
L 4056 0 
L 2931 0 
L 2931 347 
L 2931 1631 
Q 2931 2084 2911 2256 
Q 2891 2428 2841 2509 
Q 2775 2619 2662 2680 
Q 2550 2741 2406 2741 
Q 2056 2741 1856 2470 
Q 1656 2200 1656 1722 
L 1656 0 
L 538 0 
L 538 3500 
L 1656 3500 
L 1656 2988 
Q 1909 3294 2193 3439 
Q 2478 3584 2822 3584 
Q 3428 3584 3742 3212 
Q 4056 2841 4056 2131 
z
" transform="scale(0.015625)"/>
      <path id="DejaVuSans-Bold-6b" d="M 538 4863 
L 1656 4863 
L 1656 2216 
L 2944 3500 
L 4244 3500 
L 2534 1894 
L 4378 0 
L 3022 0 
L 1656 1459 
L 1656 0 
L 538 0 
L 538 4863 
z
" transform="scale(0.015625)"/>
     </defs>
     <use xlink:href="#DejaVuSans-Bold-43"/>
     <use xlink:href="#DejaVuSans-Bold-68" transform="translate(73.388672 0)"/>
     <use xlink:href="#DejaVuSans-Bold-61" transform="translate(144.580078 0)"/>
     <use xlink:href="#DejaVuSans-Bold-72" transform="translate(212.060547 0)"/>
     <use xlink:href="#DejaVuSans-Bold-69" transform="translate(261.376953 0)"/>
     <use xlink:href="#DejaVuSans-Bold-74" transform="translate(295.654297 0)"/>
     <use xlink:href="#DejaVuSans-Bold-79" transform="translate(343.457031 0)"/>
     <use xlink:href="#DejaVuSans-Bold-20" transform="translate(408.642578 0)"/>
     <use xlink:href="#DejaVuSans-Bold-50" transform="translate(443.457031 0)"/>
     <use xlink:href="#DejaVuSans-Bold-69" transform="translate(516.748047 0)"/>
     <use xlink:href="#DejaVuSans-Bold-6e" transform="translate(551.025391 0)"/>
     <use xlink:href="#DejaVuSans-Bold-6b" transform="translate(622.216797 0)"/>
    </g>
   </g>
  </g>
  <g id="axes_3">
   <g id="patch_4">
    <path d="M 228.863995 88.321739 
L 306.385734 88.321739 
L 306.385734 10.8 
L 228.863995 10.8 
z
" clip-path="url(#pe3813ecb4a)" style="fill: #672e45"/>
   </g>
   <g id="text_3">
    <!-- Maroon -->
    <g transform="translate(250.628614 102.152663) scale(0.08 -0.08)">
     <defs>
      <path id="DejaVuSans-Bold-4d" d="M 588 4666 
L 2119 4666 
L 3181 2169 
L 4250 4666 
L 5778 4666 
L 5778 0 
L 4641 0 
L 4641 3413 
L 3566 897 
L 2803 897 
L 1728 3413 
L 1728 0 
L 588 0 
L 588 4666 
z
" transform="scale(0.015625)"/>
      <path id="DejaVuSans-Bold-6f" d="M 2203 2784 
Q 1831 2784 1636 2517 
Q 1441 2250 1441 1747 
Q 1441 1244 1636 976 
Q 1831 709 2203 709 
Q 2569 709 2762 976 
Q 2956 1244 2956 1747 
Q 2956 2250 2762 2517 
Q 2569 2784 2203 2784 
z
M 2203 3584 
Q 3106 3584 3614 3096 
Q 4122 2609 4122 1747 
Q 4122 884 3614 396 
Q 3106 -91 2203 -91 
Q 1297 -91 786 396 
Q 275 884 275 1747 
Q 275 2609 786 3096 
Q 1297 3584 2203 3584 
z
" transform="scale(0.015625)"/>
     </defs>
     <use xlink:href="#DejaVuSans-Bold-4d"/>
     <use xlink:href="#DejaVuSans-Bold-61" transform="translate(99.511719 0)"/>
     <use xlink:href="#DejaVuSans-Bold-72" transform="translate(166.992188 0)"/>
     <use xlink:href="#DejaVuSans-Bold-6f" transform="translate(216.308594 0)"/>
     <use xlink:href="#DejaVuSans-Bold-6f" transform="translate(285.009766 0)"/>
     <use xlink:href="#DejaVuSans-Bold-6e" transform="translate(353.710938 0)"/>
    </g>
   </g>
  </g>
  <g id="axes_4">
   <g id="patch_5">
    <path d="M 334.113043 88.321739 
L 411.634783 88.321739 
L 411.634783 10.8 
L 334.113043 10.8 
z
" clip-path="url(#p0def610693)" style="fill: #651c32"/>
   </g>
   <g id="text_4">
    <!-- Heather Cardinal -->
    <g transform="translate(334.516413 102.152663) scale(0.08 -0.08)">
     <defs>
      <path id="DejaVuSans-Bold-48" d="M 588 4666 
L 1791 4666 
L 1791 2888 
L 3566 2888 
L 3566 4666 
L 4769 4666 
L 4769 0 
L 3566 0 
L 3566 1978 
L 1791 1978 
L 1791 0 
L 588 0 
L 588 4666 
z
" transform="scale(0.015625)"/>
      <path id="DejaVuSans-Bold-64" d="M 2919 2988 
L 2919 4863 
L 4044 4863 
L 4044 0 
L 2919 0 
L 2919 506 
Q 2688 197 2409 53 
Q 2131 -91 1766 -91 
Q 1119 -91 703 423 
Q 288 938 288 1747 
Q 288 2556 703 3070 
Q 1119 3584 1766 3584 
Q 2128 3584 2408 3439 
Q 2688 3294 2919 2988 
z
M 2181 722 
Q 2541 722 2730 984 
Q 2919 1247 2919 1747 
Q 2919 2247 2730 2509 
Q 2541 2772 2181 2772 
Q 1825 2772 1636 2509 
Q 1447 2247 1447 1747 
Q 1447 1247 1636 984 
Q 1825 722 2181 722 
z
" transform="scale(0.015625)"/>
      <path id="DejaVuSans-Bold-6c" d="M 538 4863 
L 1656 4863 
L 1656 0 
L 538 0 
L 538 4863 
z
" transform="scale(0.015625)"/>
     </defs>
     <use xlink:href="#DejaVuSans-Bold-48"/>
     <use xlink:href="#DejaVuSans-Bold-65" transform="translate(83.691406 0)"/>
     <use xlink:href="#DejaVuSans-Bold-61" transform="translate(151.513672 0)"/>
     <use xlink:href="#DejaVuSans-Bold-74" transform="translate(218.994141 0)"/>
     <use xlink:href="#DejaVuSans-Bold-68" transform="translate(266.796875 0)"/>
     <use xlink:href="#DejaVuSans-Bold-65" transform="translate(337.988281 0)"/>
     <use xlink:href="#DejaVuSans-Bold-72" transform="translate(405.810547 0)"/>
     <use xlink:href="#DejaVuSans-Bold-20" transform="translate(455.126953 0)"/>
     <use xlink:href="#DejaVuSans-Bold-43" transform="translate(489.941406 0)"/>
     <use xlink:href="#DejaVuSans-Bold-61" transform="translate(563.330078 0)"/>
     <use xlink:href="#DejaVuSans-Bold-72" transform="translate(630.810547 0)"/>
     <use xlink:href="#DejaVuSans-Bold-64" transform="translate(680.126953 0)"/>
     <use xlink:href="#DejaVuSans-Bold-69" transform="translate(751.708984 0)"/>
     <use xlink:href="#DejaVuSans-Bold-6e" transform="translate(785.986328 0)"/>
     <use xlink:href="#DejaVuSans-Bold-61" transform="translate(857.177734 0)"/>
     <use xlink:href="#DejaVuSans-Bold-6c" transform="translate(924.658203 0)"/>
    </g>
   </g>
  </g>
  <g id="axes_5">
   <g id="patch_6">
    <path d="M 18.365897 193.621739 
L 95.887636 193.621739 
L 95.887636 116.1 
L 18.365897 116.1 
z
" clip-path="url(#p3d459d9e59)" style="fill: #f7ced7"/>
   </g>
   <g id="text_5">
    <!-- Pink -->
    <g transform="translate(47.316141 207.452663) scale(0.08 -0.08)">
     <use xlink:href="#DejaVuSans-Bold-50"/>
     <use xlink:href="#DejaVuSans-Bold-69" transform="translate(73.291016 0)"/>
     <use xlink:href="#DejaVuSans-Bold-6e" transform="translate(107.568359 0)"/>
     <use xlink:href="#DejaVuSans-Bold-6b" transform="translate(178.759766 0)"/>
    </g>
   </g>
  </g>
  <g id="axes_6">
   <g id="patch_7">
    <path d="M 123.614946 193.621739 
L 201.136685 193.621739 
L 201.136685 116.1 
L 123.614946 116.1 
z
" clip-path="url(#pcc949d7d64)" style="fill: #e10600"/>
   </g>
   <g id="text_6">
    <!-- Poppy -->
    <g transform="translate(148.362065 207.390163) scale(0.08 -0.08)">
     <defs>
      <path id="DejaVuSans-Bold-70" d="M 1656 506 
L 1656 -1331 
L 538 -1331 
L 538 3500 
L 1656 3500 
L 1656 2988 
Q 1888 3294 2169 3439 
Q 2450 3584 2816 3584 
Q 3463 3584 3878 3070 
Q 4294 2556 4294 1747 
Q 4294 938 3878 423 
Q 3463 -91 2816 -91 
Q 2450 -91 2169 54 
Q 1888 200 1656 506 
z
M 2400 2772 
Q 2041 2772 1848 2508 
Q 1656 2244 1656 1747 
Q 1656 1250 1848 986 
Q 2041 722 2400 722 
Q 2759 722 2948 984 
Q 3138 1247 3138 1747 
Q 3138 2247 2948 2509 
Q 2759 2772 2400 2772 
z
" transform="scale(0.015625)"/>
     </defs>
     <use xlink:href="#DejaVuSans-Bold-50"/>
     <use xlink:href="#DejaVuSans-Bold-6f" transform="translate(73.291016 0)"/>
     <use xlink:href="#DejaVuSans-Bold-70" transform="translate(141.992188 0)"/>
     <use xlink:href="#DejaVuSans-Bold-70" transform="translate(213.574219 0)"/>
     <use xlink:href="#DejaVuSans-Bold-79" transform="translate(285.15625 0)"/>
    </g>
   </g>
  </g>
  <g id="axes_7">
   <g id="patch_8">
    <path d="M 228.863995 193.621739 
L 306.385734 193.621739 
L 306.385734 116.1 
L 228.863995 116.1 
z
" clip-path="url(#p2c472417ff)" style="fill: #ffa400"/>
   </g>
   <g id="text_7">
    <!-- Gold -->
    <g transform="translate(257.359239 207.452663) scale(0.08 -0.08)">
     <defs>
      <path id="DejaVuSans-Bold-47" d="M 4781 347 
Q 4331 128 3847 18 
Q 3363 -91 2847 -91 
Q 1681 -91 1000 561 
Q 319 1213 319 2328 
Q 319 3456 1012 4103 
Q 1706 4750 2913 4750 
Q 3378 4750 3804 4662 
Q 4231 4575 4609 4403 
L 4609 3438 
Q 4219 3659 3833 3768 
Q 3447 3878 3059 3878 
Q 2341 3878 1952 3476 
Q 1563 3075 1563 2328 
Q 1563 1588 1938 1184 
Q 2313 781 3003 781 
Q 3191 781 3352 804 
Q 3513 828 3641 878 
L 3641 1784 
L 2906 1784 
L 2906 2591 
L 4781 2591 
L 4781 347 
z
" transform="scale(0.015625)"/>
     </defs>
     <use xlink:href="#DejaVuSans-Bold-47"/>
     <use xlink:href="#DejaVuSans-Bold-6f" transform="translate(82.080078 0)"/>
     <use xlink:href="#DejaVuSans-Bold-6c" transform="translate(150.78125 0)"/>
     <use xlink:href="#DejaVuSans-Bold-64" transform="translate(185.058594 0)"/>
    </g>
   </g>
  </g>
  <g id="axes_8">
   <g id="patch_9">
    <path d="M 334.113043 193.621739 
L 411.634783 193.621739 
L 411.634783 116.1 
L 334.113043 116.1 
z
" clip-path="url(#p241659e53d)" style="fill: #f2ca00"/>
   </g>
   <g id="text_8">
    <!-- Maize Yellow -->
    <g transform="translate(343.958288 207.452663) scale(0.08 -0.08)">
     <defs>
      <path id="DejaVuSans-Bold-7a" d="M 366 3500 
L 3419 3500 
L 3419 2719 
L 1575 800 
L 3419 800 
L 3419 0 
L 288 0 
L 288 781 
L 2131 2700 
L 366 2700 
L 366 3500 
z
" transform="scale(0.015625)"/>
      <path id="DejaVuSans-Bold-59" d="M -63 4666 
L 1253 4666 
L 2316 3003 
L 3378 4666 
L 4697 4666 
L 2919 1966 
L 2919 0 
L 1716 0 
L 1716 1966 
L -63 4666 
z
" transform="scale(0.015625)"/>
      <path id="DejaVuSans-Bold-77" d="M 225 3500 
L 1313 3500 
L 1900 1088 
L 2491 3500 
L 3425 3500 
L 4013 1113 
L 4603 3500 
L 5691 3500 
L 4769 0 
L 3547 0 
L 2956 2406 
L 2369 0 
L 1147 0 
L 225 3500 
z
" transform="scale(0.015625)"/>
     </defs>
     <use xlink:href="#DejaVuSans-Bold-4d"/>
     <use xlink:href="#DejaVuSans-Bold-61" transform="translate(99.511719 0)"/>
     <use xlink:href="#DejaVuSans-Bold-69" transform="translate(166.992188 0)"/>
     <use xlink:href="#DejaVuSans-Bold-7a" transform="translate(201.269531 0)"/>
     <use xlink:href="#DejaVuSans-Bold-65" transform="translate(259.472656 0)"/>
     <use xlink:href="#DejaVuSans-Bold-20" transform="translate(327.294922 0)"/>
     <use xlink:href="#DejaVuSans-Bold-59" transform="translate(362.109375 0)"/>
     <use xlink:href="#DejaVuSans-Bold-65" transform="translate(425.396484 0)"/>
     <use xlink:href="#DejaVuSans-Bold-6c" transform="translate(493.21875 0)"/>
     <use xlink:href="#DejaVuSans-Bold-6c" transform="translate(527.496094 0)"/>
     <use xlink:href="#DejaVuSans-Bold-6f" transform="translate(561.773438 0)"/>
     <use xlink:href="#DejaVuSans-Bold-77" transform="translate(630.474609 0)"/>
    </g>
   </g>
  </g>
  <g id="axes_9">
   <g id="patch_10">
    <path d="M 18.365897 298.921739 
L 95.887636 298.921739 
L 95.887636 221.4 
L 18.365897 221.4 
z
" clip-path="url(#p31105d8f2d)" style="fill: #f6eb69"/>
   </g>
   <g id="text_9">
    <!-- Yellow -->
    <g transform="translate(42.696141 312.752663) scale(0.08 -0.08)">
     <use xlink:href="#DejaVuSans-Bold-59"/>
     <use xlink:href="#DejaVuSans-Bold-65" transform="translate(63.287109 0)"/>
     <use xlink:href="#DejaVuSans-Bold-6c" transform="translate(131.109375 0)"/>
     <use xlink:href="#DejaVuSans-Bold-6c" transform="translate(165.386719 0)"/>
     <use xlink:href="#DejaVuSans-Bold-6f" transform="translate(199.664062 0)"/>
     <use xlink:href="#DejaVuSans-Bold-77" transform="translate(268.365234 0)"/>
    </g>
   </g>
  </g>
  <g id="axes_10">
   <g id="patch_11">
    <path d="M 123.614946 298.921739 
L 201.136685 298.921739 
L 201.136685 221.4 
L 123.614946 221.4 
z
" clip-path="url(#pcc1bba1489)" style="fill: #a0dab3"/>
   </g>
   <g id="text_10">
    <!-- Heather Prism Mint -->
    <g transform="translate(118.45019 312.752663) scale(0.08 -0.08)">
     <defs>
      <path id="DejaVuSans-Bold-73" d="M 3272 3391 
L 3272 2541 
Q 2913 2691 2578 2766 
Q 2244 2841 1947 2841 
Q 1628 2841 1473 2761 
Q 1319 2681 1319 2516 
Q 1319 2381 1436 2309 
Q 1553 2238 1856 2203 
L 2053 2175 
Q 2913 2066 3209 1816 
Q 3506 1566 3506 1031 
Q 3506 472 3093 190 
Q 2681 -91 1863 -91 
Q 1516 -91 1145 -36 
Q 775 19 384 128 
L 384 978 
Q 719 816 1070 734 
Q 1422 653 1784 653 
Q 2113 653 2278 743 
Q 2444 834 2444 1013 
Q 2444 1163 2330 1236 
Q 2216 1309 1875 1350 
L 1678 1375 
Q 931 1469 631 1722 
Q 331 1975 331 2491 
Q 331 3047 712 3315 
Q 1094 3584 1881 3584 
Q 2191 3584 2531 3537 
Q 2872 3491 3272 3391 
z
" transform="scale(0.015625)"/>
      <path id="DejaVuSans-Bold-6d" d="M 3781 2919 
Q 3994 3244 4286 3414 
Q 4578 3584 4928 3584 
Q 5531 3584 5847 3212 
Q 6163 2841 6163 2131 
L 6163 0 
L 5038 0 
L 5038 1825 
Q 5041 1866 5042 1909 
Q 5044 1953 5044 2034 
Q 5044 2406 4934 2573 
Q 4825 2741 4581 2741 
Q 4263 2741 4089 2478 
Q 3916 2216 3909 1719 
L 3909 0 
L 2784 0 
L 2784 1825 
Q 2784 2406 2684 2573 
Q 2584 2741 2328 2741 
Q 2006 2741 1831 2477 
Q 1656 2213 1656 1722 
L 1656 0 
L 531 0 
L 531 3500 
L 1656 3500 
L 1656 2988 
Q 1863 3284 2130 3434 
Q 2397 3584 2719 3584 
Q 3081 3584 3359 3409 
Q 3638 3234 3781 2919 
z
" transform="scale(0.015625)"/>
     </defs>
     <use xlink:href="#DejaVuSans-Bold-48"/>
     <use xlink:href="#DejaVuSans-Bold-65" transform="translate(83.691406 0)"/>
     <use xlink:href="#DejaVuSans-Bold-61" transform="translate(151.513672 0)"/>
     <use xlink:href="#DejaVuSans-Bold-74" transform="translate(218.994141 0)"/>
     <use xlink:href="#DejaVuSans-Bold-68" transform="translate(266.796875 0)"/>
     <use xlink:href="#DejaVuSans-Bold-65" transform="translate(337.988281 0)"/>
     <use xlink:href="#DejaVuSans-Bold-72" transform="translate(405.810547 0)"/>
     <use xlink:href="#DejaVuSans-Bold-20" transform="translate(455.126953 0)"/>
     <use xlink:href="#DejaVuSans-Bold-50" transform="translate(489.941406 0)"/>
     <use xlink:href="#DejaVuSans-Bold-72" transform="translate(563.232422 0)"/>
     <use xlink:href="#DejaVuSans-Bold-69" transform="translate(612.548828 0)"/>
     <use xlink:href="#DejaVuSans-Bold-73" transform="translate(646.826172 0)"/>
     <use xlink:href="#DejaVuSans-Bold-6d" transform="translate(706.347656 0)"/>
     <use xlink:href="#DejaVuSans-Bold-20" transform="translate(810.546875 0)"/>
     <use xlink:href="#DejaVuSans-Bold-4d" transform="translate(845.361328 0)"/>
     <use xlink:href="#DejaVuSans-Bold-69" transform="translate(944.873047 0)"/>
     <use xlink:href="#DejaVuSans-Bold-6e" transform="translate(979.150391 0)"/>
     <use xlink:href="#DejaVuSans-Bold-74" transform="translate(1050.341797 0)"/>
    </g>
   </g>
  </g>
  <g id="axes_11">
   <g id="patch_12">
    <path d="M 228.863995 298.921739 
L 306.385734 298.921739 
L 306.385734 221.4 
L 228.863995 221.4 
z
" clip-path="url(#pc2881db1a2)" style="fill: #00965e"/>
   </g>
   <g id="text_11">
    <!-- Heather Kelly -->
    <g transform="translate(236.934864 312.752663) scale(0.08 -0.08)">
     <defs>
      <path id="DejaVuSans-Bold-4b" d="M 588 4666 
L 1791 4666 
L 1791 2963 
L 3525 4666 
L 4922 4666 
L 2675 2456 
L 5153 0 
L 3647 0 
L 1791 1838 
L 1791 0 
L 588 0 
L 588 4666 
z
" transform="scale(0.015625)"/>
     </defs>
     <use xlink:href="#DejaVuSans-Bold-48"/>
     <use xlink:href="#DejaVuSans-Bold-65" transform="translate(83.691406 0)"/>
     <use xlink:href="#DejaVuSans-Bold-61" transform="translate(151.513672 0)"/>
     <use xlink:href="#DejaVuSans-Bold-74" transform="translate(218.994141 0)"/>
     <use xlink:href="#DejaVuSans-Bold-68" transform="translate(266.796875 0)"/>
     <use xlink:href="#DejaVuSans-Bold-65" transform="translate(337.988281 0)"/>
     <use xlink:href="#DejaVuSans-Bold-72" transform="translate(405.810547 0)"/>
     <use xlink:href="#DejaVuSans-Bold-20" transform="translate(455.126953 0)"/>
     <use xlink:href="#DejaVuSans-Bold-4b" transform="translate(489.941406 0)"/>
     <use xlink:href="#DejaVuSans-Bold-65" transform="translate(565.681641 0)"/>
     <use xlink:href="#DejaVuSans-Bold-6c" transform="translate(633.503906 0)"/>
     <use xlink:href="#DejaVuSans-Bold-6c" transform="translate(667.78125 0)"/>
     <use xlink:href="#DejaVuSans-Bold-79" transform="translate(702.058594 0)"/>
    </g>
   </g>
  </g>
  <g id="axes_12">
   <g id="patch_13">
    <path d="M 334.113043 298.921739 
L 411.634783 298.921739 
L 411.634783 221.4 
L 334.113043 221.4 
z
" clip-path="url(#p114df7f554)" style="fill: #183029"/>
   </g>
   <g id="text_12">
    <!-- Forest -->
    <g transform="translate(358.575163 312.752663) scale(0.08 -0.08)">
     <defs>
      <path id="DejaVuSans-Bold-46" d="M 588 4666 
L 3834 4666 
L 3834 3756 
L 1791 3756 
L 1791 2888 
L 3713 2888 
L 3713 1978 
L 1791 1978 
L 1791 0 
L 588 0 
L 588 4666 
z
" transform="scale(0.015625)"/>
     </defs>
     <use xlink:href="#DejaVuSans-Bold-46"/>
     <use xlink:href="#DejaVuSans-Bold-6f" transform="translate(64.310547 0)"/>
     <use xlink:href="#DejaVuSans-Bold-72" transform="translate(133.011719 0)"/>
     <use xlink:href="#DejaVuSans-Bold-65" transform="translate(182.328125 0)"/>
     <use xlink:href="#DejaVuSans-Bold-73" transform="translate(250.150391 0)"/>
     <use xlink:href="#DejaVuSans-Bold-74" transform="translate(309.671875 0)"/>
    </g>
   </g>
  </g>
  <g id="axes_13">
   <g id="patch_14">
    <path d="M 18.365897 404.221739 
L 95.887636 404.221739 
L 95.887636 326.7 
L 18.365897 326.7 
z
" clip-path="url(#p81be182ef8)" style="fill: #00bfb2"/>
   </g>
   <g id="text_13">
    <!-- Teal -->
    <g transform="translate(48.144266 418.052663) scale(0.08 -0.08)">
     <defs>
      <path id="DejaVuSans-Bold-54" d="M 31 4666 
L 4331 4666 
L 4331 3756 
L 2784 3756 
L 2784 0 
L 1581 0 
L 1581 3756 
L 31 3756 
L 31 4666 
z
" transform="scale(0.015625)"/>
     </defs>
     <use xlink:href="#DejaVuSans-Bold-54"/>
     <use xlink:href="#DejaVuSans-Bold-65" transform="translate(54.962891 0)"/>
     <use xlink:href="#DejaVuSans-Bold-61" transform="translate(122.785156 0)"/>
     <use xlink:href="#DejaVuSans-Bold-6c" transform="translate(190.265625 0)"/>
    </g>
   </g>
  </g>
  <g id="axes_14">
   <g id="patch_15">
    <path d="M 123.614946 404.221739 
L 201.136685 404.221739 
L 201.136685 326.7 
L 123.614946 326.7 
z
" clip-path="url(#pca5cb538da)" style="fill: #00afd7"/>
   </g>
   <g id="text_14">
    <!-- Turquoise -->
    <g transform="translate(140.343315 418.052663) scale(0.08 -0.08)">
     <defs>
      <path id="DejaVuSans-Bold-75" d="M 500 1363 
L 500 3500 
L 1625 3500 
L 1625 3150 
Q 1625 2866 1622 2436 
Q 1619 2006 1619 1863 
Q 1619 1441 1641 1255 
Q 1663 1069 1716 984 
Q 1784 875 1895 815 
Q 2006 756 2150 756 
Q 2500 756 2700 1025 
Q 2900 1294 2900 1772 
L 2900 3500 
L 4019 3500 
L 4019 0 
L 2900 0 
L 2900 506 
Q 2647 200 2364 54 
Q 2081 -91 1741 -91 
Q 1134 -91 817 281 
Q 500 653 500 1363 
z
" transform="scale(0.015625)"/>
      <path id="DejaVuSans-Bold-71" d="M 2181 2772 
Q 1825 2772 1636 2509 
Q 1447 2247 1447 1747 
Q 1447 1247 1636 984 
Q 1825 722 2181 722 
Q 2541 722 2730 984 
Q 2919 1247 2919 1747 
Q 2919 2247 2730 2509 
Q 2541 2772 2181 2772 
z
M 2919 506 
Q 2688 197 2409 53 
Q 2131 -91 1766 -91 
Q 1119 -91 703 423 
Q 288 938 288 1747 
Q 288 2556 703 3067 
Q 1119 3578 1766 3578 
Q 2131 3578 2409 3434 
Q 2688 3291 2919 2981 
L 2919 3500 
L 4044 3500 
L 4044 -1331 
L 2919 -1331 
L 2919 506 
z
" transform="scale(0.015625)"/>
     </defs>
     <use xlink:href="#DejaVuSans-Bold-54"/>
     <use xlink:href="#DejaVuSans-Bold-75" transform="translate(57.212891 0)"/>
     <use xlink:href="#DejaVuSans-Bold-72" transform="translate(128.404297 0)"/>
     <use xlink:href="#DejaVuSans-Bold-71" transform="translate(177.720703 0)"/>
     <use xlink:href="#DejaVuSans-Bold-75" transform="translate(249.302734 0)"/>
     <use xlink:href="#DejaVuSans-Bold-6f" transform="translate(320.494141 0)"/>
     <use xlink:href="#DejaVuSans-Bold-69" transform="translate(389.195312 0)"/>
     <use xlink:href="#DejaVuSans-Bold-73" transform="translate(423.472656 0)"/>
     <use xlink:href="#DejaVuSans-Bold-65" transform="translate(482.994141 0)"/>
    </g>
   </g>
  </g>
  <g id="axes_15">
   <g id="patch_16">
    <path d="M 228.863995 404.221739 
L 306.385734 404.221739 
L 306.385734 326.7 
L 228.863995 326.7 
z
" clip-path="url(#pb46566f005)" style="fill: #005876"/>
   </g>
   <g id="text_15">
    <!-- Deep Teal -->
    <g transform="translate(245.639864 418.052663) scale(0.08 -0.08)">
     <defs>
      <path id="DejaVuSans-Bold-44" d="M 1791 3756 
L 1791 909 
L 2222 909 
Q 2959 909 3348 1275 
Q 3738 1641 3738 2338 
Q 3738 3031 3350 3393 
Q 2963 3756 2222 3756 
L 1791 3756 
z
M 588 4666 
L 1856 4666 
Q 2919 4666 3439 4514 
Q 3959 4363 4331 4000 
Q 4659 3684 4818 3271 
Q 4978 2859 4978 2338 
Q 4978 1809 4818 1395 
Q 4659 981 4331 666 
Q 3956 303 3431 151 
Q 2906 0 1856 0 
L 588 0 
L 588 4666 
z
" transform="scale(0.015625)"/>
     </defs>
     <use xlink:href="#DejaVuSans-Bold-44"/>
     <use xlink:href="#DejaVuSans-Bold-65" transform="translate(83.007812 0)"/>
     <use xlink:href="#DejaVuSans-Bold-65" transform="translate(150.830078 0)"/>
     <use xlink:href="#DejaVuSans-Bold-70" transform="translate(218.652344 0)"/>
     <use xlink:href="#DejaVuSans-Bold-20" transform="translate(290.234375 0)"/>
     <use xlink:href="#DejaVuSans-Bold-54" transform="translate(325.048828 0)"/>
     <use xlink:href="#DejaVuSans-Bold-65" transform="translate(380.011719 0)"/>
     <use xlink:href="#DejaVuSans-Bold-61" transform="translate(447.833984 0)"/>
     <use xlink:href="#DejaVuSans-Bold-6c" transform="translate(515.314453 0)"/>
    </g>
   </g>
  </g>
  <g id="axes_16">
   <g id="patch_17">
    <path d="M 334.113043 404.221739 
L 411.634783 404.221739 
L 411.634783 326.7 
L 334.113043 326.7 
z
" clip-path="url(#pc34c93d279)" style="fill: #2e1a47"/>
   </g>
   <g id="text_16">
    <!-- Team Purple -->
    <g transform="translate(345.002663 418.052663) scale(0.08 -0.08)">
     <use xlink:href="#DejaVuSans-Bold-54"/>
     <use xlink:href="#DejaVuSans-Bold-65" transform="translate(54.962891 0)"/>
     <use xlink:href="#DejaVuSans-Bold-61" transform="translate(122.785156 0)"/>
     <use xlink:href="#DejaVuSans-Bold-6d" transform="translate(190.265625 0)"/>
     <use xlink:href="#DejaVuSans-Bold-20" transform="translate(294.464844 0)"/>
     <use xlink:href="#DejaVuSans-Bold-50" transform="translate(329.279297 0)"/>
     <use xlink:href="#DejaVuSans-Bold-75" transform="translate(402.570312 0)"/>
     <use xlink:href="#DejaVuSans-Bold-72" transform="translate(473.761719 0)"/>
     <use xlink:href="#DejaVuSans-Bold-70" transform="translate(523.078125 0)"/>
     <use xlink:href="#DejaVuSans-Bold-6c" transform="translate(594.660156 0)"/>
     <use xlink:href="#DejaVuSans-Bold-65" transform="translate(628.9375 0)"/>
    </g>
   </g>
  </g>
 </g>
 <defs>
  <clipPath id="p1b850f3b98">
   <rect x="18.365897" y="10.8" width="77.521739" height="93.026087"/>
  </clipPath>
  <clipPath id="p2b4bc19a7e">
   <rect x="123.614946" y="10.8" width="77.521739" height="93.026087"/>
  </clipPath>
  <clipPath id="pe3813ecb4a">
   <rect x="228.863995" y="10.8" width="77.521739" height="93.026087"/>
  </clipPath>
  <clipPath id="p0def610693">
   <rect x="334.113043" y="10.8" width="77.521739" height="93.026087"/>
  </clipPath>
  <clipPath id="p3d459d9e59">
   <rect x="18.365897" y="116.1" width="77.521739" height="93.026087"/>
  </clipPath>
  <clipPath id="pcc949d7d64">
   <rect x="123.614946" y="116.1" width="77.521739" height="93.026087"/>
  </clipPath>
  <clipPath id="p2c472417ff">
   <rect x="228.863995" y="116.1" width="77.521739" height="93.026087"/>
  </clipPath>
  <clipPath id="p241659e53d">
   <rect x="334.113043" y="116.1" width="77.521739" height="93.026087"/>
  </clipPath>
  <clipPath id="p31105d8f2d">
   <rect x="18.365897" y="221.4" width="77.521739" height="93.026087"/>
  </clipPath>
  <clipPath id="pcc1bba1489">
   <rect x="123.614946" y="221.4" width="77.521739" height="93.026087"/>
  </clipPath>
  <clipPath id="pc2881db1a2">
   <rect x="228.863995" y="221.4" width="77.521739" height="93.026087"/>
  </clipPath>
  <clipPath id="p114df7f554">
   <rect x="334.113043" y="221.4" width="77.521739" height="93.026087"/>
  </clipPath>
  <clipPath id="p81be182ef8">
   <rect x="18.365897" y="326.7" width="77.521739" height="93.026087"/>
  </clipPath>
  <clipPath id="pca5cb538da">
   <rect x="123.614946" y="326.7" width="77.521739" height="93.026087"/>
  </clipPath>
  <clipPath id="pb46566f005">
   <rect x="228.863995" y="326.7" width="77.521739" height="93.026087"/>
  </clipPath>
  <clipPath id="pc34c93d279">
   <rect x="334.113043" y="326.7" width="77.521739" height="93.026087"/>
  </clipPath>
 </defs>
</svg>
